<svg xmlns="http://www.w3.org/2000/svg" viewBox="0 0 48 48" role="img" aria-label="PYC Club crest">
  <defs>
    <linearGradient id="fBlue" x1="0" y1="0" x2="1" y2="1">
      <stop offset="0%" stop-color="#2741B5"/>
      <stop offset="100%" stop-color="#1F2E8A"/>
    </linearGradient>
    <linearGradient id="fGold" x1="0" y1="0" x2="1" y2="1">
      <stop offset="0%" stop-color="#E8C766"/>
      <stop offset="100%" stop-color="#D4AF37"/>
    </linearGradient>
  </defs>
  <path d="M24 1 L46 8 V25 C46 38 36 46 24 47 C12 46 2 38 2 25 V8 Z" fill="url(#fBlue)"/>
  <path d="M24 1 L46 8 V25 C46 38 36 46 24 47 C12 46 2 38 2 25 V8 Z" fill="none" stroke="url(#fGold)" stroke-width="1.4"/>
  <path d="M24 35 V18 M24 18 L17 24 M24 18 L31 24 M24 23 L13 30 M24 23 L35 30" stroke="url(#fGold)" stroke-width="2.2" stroke-linecap="round" fill="none"/>
  <circle cx="24" cy="18" r="3" fill="url(#fGold)"/>
  <g fill="#FFFFFF">
    <circle cx="13" cy="39" r="2"/>
    <rect x="11.4" y="41" width="3.2" height="4" rx="1"/>
    <circle cx="24" cy="39" r="2.2"/>
    <rect x="22" y="41" width="4" height="4.5" rx="1"/>
    <circle cx="35" cy="39" r="2"/>
    <rect x="33.4" y="41" width="3.2" height="4" rx="1"/>
  </g>
</svg>
